<svg fill="#000000" xmlns="http://www.w3.org/2000/svg"  viewBox="0 0 100 100" width="100px" height="100px"><path d="M 50.039062 15 A 1.0001 1.0001 0 0 0 49.574219 15.095703 L 0.57421875 38.095703 A 1.0001 1.0001 0 0 0 0.57421875 39.904297 L 7.5742188 43.191406 A 1.0004048 1.0004048 0 1 0 8.4257812 41.380859 L 3.3535156 39 L 50 17.105469 L 96.646484 39 L 77 48.220703 L 77 41.435547 C 77 40.199813 76.150306 39.155839 74.855469 38.316406 C 73.560631 37.476973 71.77165 36.78515 69.630859 36.205078 A 0.50005 0.50005 0 0 0 69.482422 36.185547 A 0.50005 0.50005 0 0 0 69.369141 37.169922 C 71.45035 37.73385 73.160884 38.410933 74.310547 39.15625 C 75.460209 39.901567 76 40.660281 76 41.435547 L 76 49.326172 L 76 63.628906 C 75.634733 63.305389 75.184272 63.006368 74.654297 62.722656 C 73.246535 61.969039 71.274072 61.318454 68.849609 60.769531 C 64.000683 59.671685 57.348587 59 50 59 C 42.651413 59 35.999317 59.671685 31.150391 60.769531 C 28.725928 61.318454 26.753465 61.969039 25.345703 62.722656 C 24.815728 63.006368 24.365267 63.305389 24 63.628906 L 24 51.035156 A 0.50005 0.50005 0 0 0 24 51 L 24 49.326172 L 24 41.435547 C 24 40.575033 24.675827 39.723525 26.083984 38.912109 C 27.492141 38.100694 29.563887 37.387736 32.044922 36.814453 C 37.006992 35.667887 43.607739 35.064453 50 35.064453 C 50.15596 35.064453 50.32111 35.069213 50.496094 35.070312 A 0.50005 0.50005 0 1 0 50.503906 34.070312 C 50.344902 34.06932 50.17604 34.064453 50 34.064453 C 43.545261 34.064453 36.896493 34.66691 31.820312 35.839844 C 29.282222 36.426311 27.137234 37.151853 25.583984 38.046875 C 24.030735 38.941897 23 40.06506 23 41.435547 L 23 48.220703 L 15.425781 44.666016 A 1.0004043 1.0004043 0 1 0 14.574219 46.476562 L 22 49.960938 L 22 65.498047 C 22 66.956735 23.124583 68.043303 24.626953 68.898438 C 26.129323 69.753572 28.174561 70.466689 30.673828 71.068359 C 35.672362 72.271701 42.478952 72.998047 50 72.998047 C 57.521048 72.998047 64.327638 72.271701 69.326172 71.068359 C 71.825439 70.466689 73.870677 69.753572 75.373047 68.898438 C 76.875417 68.043302 78 66.956735 78 65.498047 L 78 49.960938 L 99.425781 39.904297 A 1.0001 1.0001 0 0 0 99.425781 38.095703 L 50.425781 15.095703 A 1.0001 1.0001 0 0 0 50.039062 15 z M 54.472656 34.167969 A 0.50005 0.50005 0 0 0 54.478516 35.167969 C 56.163925 35.242629 57.832004 35.353713 59.451172 35.509766 A 0.50005 0.50005 0 1 0 59.548828 34.515625 C 57.909996 34.357677 56.222075 34.243305 54.521484 34.167969 A 0.50005 0.50005 0 0 0 54.472656 34.167969 z M 61.458984 34.728516 A 0.50019219 0.50019219 0 0 0 61.441406 35.726562 C 62.463159 35.848934 63.461311 35.984025 64.419922 36.138672 A 0.50005 0.50005 0 1 0 64.580078 35.152344 C 63.604689 34.99499 62.590841 34.858003 61.558594 34.734375 A 0.50005 0.50005 0 0 0 61.509766 34.728516 A 0.50019219 0.50019219 0 0 0 61.458984 34.728516 z M 66.498047 35.501953 A 0.50005 0.50005 0 0 0 66.402344 36.494141 C 66.741975 36.561251 67.084878 36.62409 67.394531 36.691406 A 0.50049636 0.50049636 0 1 0 67.605469 35.712891 C 67.271122 35.640211 66.926025 35.578559 66.597656 35.513672 A 0.50005 0.50005 0 0 0 66.498047 35.501953 z M 11.492188 38.992188 A 0.50005 0.50005 0 0 0 11 39.5 L 11 56.5 A 0.50005 0.50005 0 1 0 12 56.5 L 12 39.5 A 0.50005 0.50005 0 0 0 11.492188 38.992188 z M 11.492188 58.867188 A 0.50005 0.50005 0 0 0 11 59.375 L 11 60.5 A 0.50005 0.50005 0 1 0 12 60.5 L 12 59.375 A 0.50005 0.50005 0 0 0 11.492188 58.867188 z M 50 60 C 57.287413 60 63.886832 60.670487 68.628906 61.744141 C 70.999943 62.280968 72.907528 62.923398 74.181641 63.605469 C 74.818697 63.946504 75.29358 64.297168 75.589844 64.625 C 75.885442 64.952097 75.99949 65.23348 76 65.498047 C 76 65.498047 76 65.5 76 65.5 C 75.998834 65.836674 75.611088 66.461034 74.382812 67.160156 C 73.152683 67.860334 71.244155 68.548467 68.857422 69.123047 C 64.083956 70.272206 57.390952 70.998047 50 70.998047 C 42.609048 70.998047 35.916044 70.272206 31.142578 69.123047 C 28.755845 68.548467 26.847317 67.860334 25.617188 67.160156 C 24.388912 66.461034 24.001166 65.836674 24 65.5 C 24 65.5 24 65.498047 24 65.498047 C 24.00051 65.23348 24.114558 64.952097 24.410156 64.625 C 24.70642 64.297168 25.181303 63.946504 25.818359 63.605469 C 27.092472 62.923398 29.000057 62.280968 31.371094 61.744141 C 36.113168 60.670487 42.712587 60 50 60 z M 11.492188 61.992188 A 0.50005 0.50005 0 0 0 11 62.5 L 11 65 L 10.5 65 C 9.1250151 65 8 66.125015 8 67.5 L 8 69.367188 C 6.8135479 70.372755 6 71.821491 6 73.5 C 6 75.783484 7.2982009 78.548533 8.5644531 80.806641 C 9.8307054 83.064748 11.095703 84.794922 11.095703 84.794922 A 0.50005 0.50005 0 0 0 11.904297 84.794922 C 11.904297 84.794922 13.169295 83.064748 14.435547 80.806641 C 15.701799 78.548533 17 75.783484 17 73.5 C 17 71.821303 16.185629 70.372675 15 69.367188 L 15 67.5 C 15 66.125015 13.874985 65 12.5 65 L 12 65 L 12 62.5 A 0.50005 0.50005 0 0 0 11.492188 61.992188 z M 10.5 66 L 11.419922 66 A 0.50005 0.50005 0 0 0 11.582031 66 L 12.5 66 C 13.335015 66 14 66.664985 14 67.5 L 14 69 L 9 69 L 9 67.5 C 9 66.664985 9.6649849 66 10.5 66 z M 8.7402344 70 L 14.259766 70 C 15.30399 70.825101 16 72.067758 16 73.5 C 16 75.383516 14.798201 78.118217 13.564453 80.318359 C 12.532798 82.15811 11.810274 83.132662 11.5 83.568359 C 11.189726 83.132662 10.467202 82.15811 9.4355469 80.318359 C 8.2017991 78.118217 7 75.383516 7 73.5 C 7 72.067561 7.6953255 70.82503 8.7402344 70 z"/></svg>